HIERARCHY
ROOT joint_Root
{
	OFFSET 0.0 0.0 0.0
	CHANNELS 6 Xposition Yposition Zposition Zrotation Xrotation Yrotation 
	JOINT Hips
	{
		OFFSET -0.726466 93.3139 -2.00062
		CHANNELS 6 Xposition Yposition Zposition Zrotation Xrotation Yrotation 
		JOINT Spine
		{
			OFFSET 15.7357 0.0 0.0
			CHANNELS 6 Xposition Yposition Zposition Zrotation Xrotation Yrotation 
			JOINT Chest
			{
				OFFSET 8.98455 -0.406207 0.0
				CHANNELS 6 Xposition Yposition Zposition Zrotation Xrotation Yrotation 
				JOINT Neck
				{
					OFFSET 16.3773 0.0 0.0
					CHANNELS 6 Xposition Yposition Zposition Zrotation Xrotation Yrotation 
					JOINT Head
					{
						OFFSET 6.45672 0.0 0.0
						CHANNELS 6 Xposition Yposition Zposition Zrotation Xrotation Yrotation 
						End Site
						{
							OFFSET 0.0 0.0 0.0
						}
					}
				}
				JOINT Shoulder_L
				{
					OFFSET 12.9942 -0.242716 4.98039
					CHANNELS 6 Xposition Yposition Zposition Zrotation Xrotation Yrotation 
					JOINT UpperArm_L
					{
						OFFSET 5.34809 0.0 0.0
						CHANNELS 6 Xposition Yposition Zposition Zrotation Xrotation Yrotation 
						JOINT LowerArm_L
						{
							OFFSET 24.3286 1.87007e-05 0.0
							CHANNELS 6 Xposition Yposition Zposition Zrotation Xrotation Yrotation 
							JOINT Hand_L
							{
								OFFSET 22.2916 0.0 0.0
								CHANNELS 6 Xposition Yposition Zposition Zrotation Xrotation Yrotation 
								End Site
								{
									OFFSET 0.0 0.0 0.0
								}
							}
						}
					}
				}
				JOINT Shoulder_R
				{
					OFFSET 12.9945 -0.242716 -4.98039
					CHANNELS 6 Xposition Yposition Zposition Zrotation Xrotation Yrotation 
					JOINT UpperArm_R
					{
						OFFSET -5.34813 0.0 0.0
						CHANNELS 6 Xposition Yposition Zposition Zrotation Xrotation Yrotation 
						JOINT LowerArm_R
						{
							OFFSET -24.3289 0.000322201 0.0
							CHANNELS 6 Xposition Yposition Zposition Zrotation Xrotation Yrotation 
							JOINT Hand_R
							{
								OFFSET -22.2915 -0.000108084 0.0
								CHANNELS 6 Xposition Yposition Zposition Zrotation Xrotation Yrotation 
								End Site
								{
									OFFSET 0.0 0.0 0.0
								}
							}
						}
					}
				}
			}
		}
		JOINT UpperLeg_L
		{
			OFFSET -2.19248 -6.46944 0.0
			CHANNELS 6 Xposition Yposition Zposition Zrotation Xrotation Yrotation 
			JOINT LowerLeg_L
			{
				OFFSET 39.0811 0.0 -1.23785e-05
				CHANNELS 6 Xposition Yposition Zposition Zrotation Xrotation Yrotation 
				JOINT Foot_L
				{
					OFFSET 40.9854 0.0 -1.26872e-05
					CHANNELS 6 Xposition Yposition Zposition Zrotation Xrotation Yrotation 
					JOINT Toes_L
					{
						OFFSET 11.7543 0.0 0.0
						CHANNELS 6 Xposition Yposition Zposition Zrotation Xrotation Yrotation 
						End Site
						{
							OFFSET 0.0 0.0 0.0
						}
					}
				}
			}
		}
		JOINT UpperLeg_R
		{
			OFFSET -2.19251 6.46944 0.0
			CHANNELS 6 Xposition Yposition Zposition Zrotation Xrotation Yrotation 
			JOINT LowerLeg_R
			{
				OFFSET -39.0811 -0.00228153 -0.0401928
				CHANNELS 6 Xposition Yposition Zposition Zrotation Xrotation Yrotation 
				JOINT Foot_R
				{
					OFFSET -40.9854 0.0 0.0
					CHANNELS 6 Xposition Yposition Zposition Zrotation Xrotation Yrotation 
					JOINT Toes_R
					{
						OFFSET -11.7543 0.0 0.0
						CHANNELS 6 Xposition Yposition Zposition Zrotation Xrotation Yrotation 
						End Site
						{
							OFFSET 0.0 0.0 0.0
						}
					}
				}
			}
		}
	}
}
MOTION
Frames:	9
Frame Time:	0.0333333
0.000000 0.000000 0.000000 0.000000 0.000000 -0.000000 -0.049104 92.394200 -2.142800 87.571500 -2.051410 4.445100 15.735700 0.000005 -0.000001 90.926000 85.707100 -91.777800 8.984550 -0.406207 -0.000000 0.820553 0.190324 -1.703610 16.377300 -0.000001 -0.000001 4.779360 -3.221370 3.489540 6.456720 -0.000001 -0.000000 6.159660 -4.524470 -0.512799 12.994200 -0.242716 4.980390 -89.717500 -0.867578 -71.963900 5.348090 -0.000007 -0.000001 -66.583300 39.672900 -14.376700 24.328600 0.000019 0.000005 1.324550 3.250580 -22.183500 22.291600 -0.000001 0.000005 4.690160 5.508820 -6.892740 12.994500 -0.242716 -4.980390 90.330200 -0.996034 -71.658800 -5.348130 -0.000001 -0.000004 -79.900500 -28.968000 -99.203900 -24.328900 0.000322 -0.000009 18.630800 0.134836 -89.601000 -22.291500 -0.000108 -0.000004 20.872900 5.307550 -0.140484 -2.192480 -6.469440 -0.000000 -175.778000 -5.181930 -2.777350 39.081100 -0.000007 -0.000012 -0.078055 0.183105 23.087900 40.985400 -0.000006 -0.000013 0.178369 2.405070 -66.095900 11.754300 -0.000000 0.000003 -0.000058 -0.000644 -16.602500 -2.192510 6.469440 -0.000001 -179.972000 13.441000 -179.691000 -39.081100 -0.002282 -0.040193 0.026729 -0.067974 19.000600 -40.985400 0.000008 0.000006 5.094360 7.360870 -65.563800 -11.754300 -0.000006 -0.000006 -0.006168 -0.072352 -19.517800
0.000000 0.000000 0.000000 0.000000 0.000000 -0.000000 -0.022589 92.403400 -2.188120 87.569000 -2.078970 4.361850 15.735700 0.000005 -0.000001 90.953300 85.708400 -91.784700 8.984550 -0.406207 -0.000000 0.817917 0.193142 -1.662750 16.377300 -0.000001 -0.000001 4.729140 -3.218550 3.515090 6.456720 -0.000001 -0.000000 6.125720 -4.546620 -0.500029 12.994200 -0.242716 4.980390 -89.717200 -0.868999 -71.970700 5.348090 -0.000007 -0.000001 -66.521700 39.745600 -14.515800 24.328600 0.000019 0.000005 1.275990 3.109880 -22.320900 22.291600 -0.000001 0.000005 4.597950 5.509570 -6.923700 12.994500 -0.242716 -4.980390 90.330200 -0.993190 -71.608600 -5.348130 -0.000001 -0.000004 -79.932700 -29.016600 -99.392800 -24.328900 0.000322 -0.000009 18.578600 0.112457 -89.666300 -22.291500 -0.000108 -0.000004 21.010800 5.308280 -0.161078 -2.192480 -6.469440 -0.000000 -175.793000 -5.270270 -2.869950 39.081100 -0.000007 -0.000012 -0.077675 0.182535 23.051400 40.985400 -0.000006 -0.000013 0.210918 2.468860 -66.049500 11.754300 -0.000000 0.000003 -0.000046 -0.000528 -16.598100 -2.192510 6.469440 -0.000001 -179.956000 13.408100 -179.798000 -39.081100 -0.002282 -0.040193 0.026145 -0.066447 18.955400 -40.985400 0.000008 0.000006 5.022880 7.366840 -65.485400 -11.754300 -0.000006 -0.000006 -0.005942 -0.070305 -19.434400
0.000000 0.000000 0.000000 0.000000 0.000000 -0.000000 0.002442 92.415200 -2.240320 87.557100 -2.085630 4.328640 15.735700 0.000005 -0.000001 90.853300 85.697900 -91.663300 8.984550 -0.406207 -0.000000 0.838975 0.177042 -1.619930 16.377300 -0.000001 -0.000001 4.749720 -3.260020 3.515580 6.456720 -0.000001 -0.000000 6.031170 -4.575050 -0.494647 12.994200 -0.242716 4.980390 -89.718200 -0.866018 -71.975600 5.348090 -0.000007 -0.000001 -66.546000 39.764300 -14.537900 24.328600 0.000019 0.000005 1.294670 3.134320 -22.456600 22.291600 -0.000001 0.000005 4.594590 5.508790 -6.891620 12.994500 -0.242716 -4.980390 90.336200 -1.006510 -71.528300 -5.348130 -0.000001 -0.000004 -79.960100 -29.065600 -99.464400 -24.328900 0.000322 -0.000009 18.362100 0.044059 -89.868200 -22.291500 -0.000108 -0.000004 20.872500 5.307290 -0.133162 -2.192480 -6.469440 -0.000000 -175.815000 -5.293020 -2.927100 39.081100 -0.000007 -0.000012 -0.076643 0.180428 23.015000 40.985400 -0.000006 -0.000013 0.232698 2.437910 -65.990200 11.754300 -0.000000 0.000003 -0.000051 -0.000576 -16.599900 -2.192510 6.469440 -0.000001 -179.942000 13.388500 -179.860000 -39.081100 -0.002282 -0.040193 0.026450 -0.067423 18.932700 -40.985400 0.000008 0.000006 5.006740 7.363250 -65.396100 -11.754300 -0.000006 -0.000006 -0.006131 -0.072021 -19.504300
0.000000 0.000000 0.000000 0.000000 0.000000 -0.000000 0.030483 92.415100 -2.282230 87.578200 -2.117870 4.300220 15.735700 0.000005 -0.000001 90.655700 85.678200 -91.448200 8.984550 -0.406207 -0.000000 0.878493 0.146507 -1.584870 16.377300 -0.000001 -0.000001 4.690660 -3.265050 3.548260 6.456720 -0.000001 -0.000000 6.056540 -4.557120 -0.578697 12.994200 -0.242716 4.980390 -89.728900 -0.832681 -71.967400 5.348090 -0.000007 -0.000001 -66.537700 39.875100 -14.565700 24.328600 0.000019 0.000005 1.256520 3.031280 -22.527000 22.291600 -0.000001 0.000005 4.665540 5.507970 -6.857590 12.994500 -0.242716 -4.980390 90.341900 -1.021950 -71.500500 -5.348130 -0.000001 -0.000004 -79.803100 -29.192000 -99.333700 -24.328900 0.000322 -0.000009 18.404000 -0.046994 -90.142100 -22.291500 -0.000108 -0.000004 21.009200 5.305470 -0.081720 -2.192480 -6.469440 -0.000000 -175.863000 -5.196320 -2.990800 39.081100 -0.000007 -0.000012 -0.077209 0.181691 23.022900 40.985400 -0.000006 -0.000013 0.220318 2.336220 -65.964000 11.754300 -0.000000 0.000003 -0.000040 -0.000462 -16.595600 -2.192510 6.469440 -0.000001 -179.961000 13.372200 -179.932000 -39.081100 -0.002282 -0.040193 0.026734 -0.068201 18.945400 -40.985400 0.000008 0.000006 5.008660 7.365770 -65.402500 -11.754300 -0.000006 -0.000006 -0.006235 -0.072954 -19.542400
0.000000 0.000000 0.000000 0.000000 0.000000 -0.000000 0.052284 92.430500 -2.323280 87.556100 -2.149080 4.289580 15.735700 0.000005 -0.000001 90.621500 85.662700 -91.378400 8.984550 -0.406207 -0.000000 0.909383 0.139333 -1.513720 16.377300 -0.000001 -0.000001 4.726080 -3.331390 3.538340 6.456720 -0.000001 -0.000000 5.989830 -4.624490 -0.652005 12.994200 -0.242716 4.980390 -89.741500 -0.795396 -71.992900 5.348090 -0.000007 -0.000001 -66.650000 39.888000 -14.467200 24.328600 0.000019 0.000005 1.295380 3.121350 -22.551600 22.291600 -0.000001 0.000005 4.638590 5.506720 -6.806280 12.994500 -0.242716 -4.980390 90.346600 -1.030580 -71.411900 -5.348130 -0.000001 -0.000004 -79.335800 -29.366000 -98.718800 -24.328900 0.000322 -0.000009 18.645000 -0.205509 -90.609800 -22.291500 -0.000108 -0.000004 21.460500 5.305300 -0.077283 -2.192480 -6.469440 -0.000000 -175.859000 -5.270810 -2.983710 39.081100 -0.000007 -0.000012 -0.076008 0.179495 22.950600 40.985400 -0.000006 -0.000013 0.245082 2.351650 -65.907700 11.754300 -0.000000 0.000003 -0.000050 -0.000565 -16.599500 -2.192510 6.469440 -0.000001 -179.943000 13.288300 -179.973000 -39.081100 -0.002282 -0.040193 0.026169 -0.066633 18.924400 -40.985400 0.000008 0.000006 4.961930 7.369960 -65.271400 -11.754300 -0.000006 -0.000006 -0.005987 -0.070718 -19.451200
0.000000 0.000000 0.000000 0.000000 0.000000 -0.000000 0.062058 92.419900 -2.348870 87.552300 -2.176020 4.271960 15.735700 0.000005 -0.000001 90.451000 85.639800 -91.185600 8.984550 -0.406207 -0.000000 0.955193 0.112267 -1.468950 16.377300 -0.000001 -0.000001 4.730310 -3.417490 3.553030 6.456720 -0.000001 -0.000000 5.961590 -4.656370 -0.774038 12.994200 -0.242716 4.980390 -89.750400 -0.769065 -72.019000 5.348090 -0.000007 -0.000001 -66.782100 39.904400 -14.391800 24.328600 0.000019 0.000005 1.326660 3.210510 -22.465100 22.291600 -0.000001 0.000005 4.586920 5.506410 -6.793570 12.994500 -0.242716 -4.980390 90.344000 -1.018330 -71.332600 -5.348130 -0.000001 -0.000004 -78.447200 -29.580300 -97.310600 -24.328900 0.000322 -0.000009 18.501100 -0.502990 -91.503700 -22.291500 -0.000108 -0.000004 22.238800 5.305410 -0.080501 -2.192480 -6.469440 -0.000000 -175.866000 -5.229900 -3.070320 39.081100 -0.000007 -0.000012 -0.076335 0.179437 23.045800 40.985400 -0.000006 -0.000013 0.240874 2.310120 -65.933400 11.754300 -0.000000 0.000003 -0.000037 -0.000434 -16.594500 -2.192510 6.469440 -0.000001 -179.930000 13.322700 179.966000 -39.081100 -0.002282 -0.040193 0.027375 -0.069965 18.971100 -40.985400 0.000008 0.000006 5.035960 7.368070 -65.342700 -11.754300 -0.000006 -0.000006 -0.006428 -0.074678 -19.612700
0.000000 0.000000 0.000000 0.000000 0.000000 -0.000000 0.076707 92.432500 -2.379780 87.535700 -2.216990 4.289140 15.735700 0.000005 -0.000001 90.194800 85.621500 -90.902200 8.984550 -0.406207 -0.000000 0.991743 0.071562 -1.414330 16.377300 -0.000001 -0.000001 4.765390 -3.496500 3.558300 6.456720 -0.000001 -0.000000 5.975320 -4.676820 -0.857528 12.994200 -0.242716 4.980390 -89.770100 -0.708307 -72.019900 5.348090 -0.000007 -0.000001 -66.918800 39.929900 -14.215000 24.328600 0.000019 0.000005 1.336720 3.240000 -22.433100 22.291600 -0.000001 0.000005 4.652430 5.507090 -6.821400 12.994500 -0.242716 -4.980390 90.333200 -0.980506 -71.227900 -5.348130 -0.000001 -0.000004 -76.767700 -29.644800 -94.527300 -24.328900 0.000322 -0.000009 18.048400 -0.981071 -93.009200 -22.291500 -0.000108 -0.000004 23.520800 5.316960 -0.407280 -2.192480 -6.469440 -0.000000 -175.866000 -5.226130 -3.036620 39.081100 -0.000007 -0.000012 -0.076619 0.180651 22.983300 40.985400 -0.000006 -0.000013 0.240271 2.246980 -65.885200 11.754300 -0.000000 0.000003 -0.000046 -0.000525 -16.597900 -2.192510 6.469440 -0.000001 -179.931000 13.295700 179.968000 -39.081100 -0.002282 -0.040193 0.026285 -0.066909 18.941200 -40.985400 0.000008 0.000006 4.962130 7.434040 -65.229600 -11.754300 -0.000006 -0.000006 -0.006103 -0.071771 -19.494200
0.000000 0.000000 0.000000 0.000000 0.000000 -0.000000 0.078453 92.428800 -2.401910 87.540000 -2.290460 4.304690 15.735700 0.000005 -0.000001 89.831400 85.601700 -90.544400 8.984550 -0.406207 -0.000000 1.031080 0.016018 -1.424890 16.377300 -0.000001 -0.000001 4.843610 -3.560900 3.561390 6.456720 -0.000001 -0.000000 5.943120 -4.683410 -0.804588 12.994200 -0.242716 4.980390 -89.789200 -0.646898 -71.952800 5.348090 -0.000007 -0.000001 -66.957300 40.021900 -14.088800 24.328600 0.000019 0.000005 1.353430 3.280740 -22.432100 22.291600 -0.000001 0.000005 4.683950 5.506230 -6.786340 12.994500 -0.242716 -4.980390 90.249000 -0.733098 -71.235700 -5.348130 -0.000001 -0.000004 -74.024900 -29.574500 -90.154300 -24.328900 0.000322 -0.000009 17.084800 -1.618900 -95.253900 -22.291500 -0.000108 -0.000004 24.749400 5.336790 -0.982908 -2.192480 -6.469440 -0.000000 -175.870000 -5.281780 -3.041410 39.081100 -0.000007 -0.000012 -0.075634 0.178062 23.014100 40.985400 -0.000006 -0.000013 0.238948 2.220930 -65.890800 11.754300 -0.000000 0.000003 -0.000040 -0.000462 -16.595500 -2.192510 6.469440 -0.000001 -179.935000 13.277200 179.953000 -39.081100 -0.002282 -0.040193 0.026912 -0.068607 18.974300 -40.985400 0.000008 0.000006 4.998800 7.452700 -65.255900 -11.754300 -0.000006 -0.000006 -0.006202 -0.072661 -19.530400
0.000000 0.000000 0.000000 0.000000 0.000000 -0.000000 0.077756 92.429000 -2.415030 87.528400 -2.340710 4.358960 15.735700 0.000005 -0.000001 89.308400 85.567700 -90.019100 8.984550 -0.406207 -0.000000 1.097890 -0.065619 -1.419610 16.377300 -0.000001 -0.000001 4.818290 -3.584340 3.512750 6.456720 -0.000001 -0.000000 6.018790 -4.737750 -0.754151 12.994200 -0.242716 4.980390 -89.806700 -0.591575 -71.902500 5.348090 -0.000007 -0.000001 -67.066600 40.026300 -13.927100 24.328600 0.000019 0.000005 1.375690 3.335510 -22.427700 22.291600 -0.000001 0.000005 4.654680 5.505960 -6.775130 12.994500 -0.242716 -4.980390 90.084900 -0.252242 -71.406600 -5.348130 -0.000001 -0.000004 -70.009900 -29.195900 -84.125300 -24.328900 0.000322 -0.000009 15.982100 -2.374540 -98.233400 -22.291500 -0.000108 -0.000004 25.469300 5.350190 -1.383010 -2.192480 -6.469440 -0.000000 -175.837000 -5.303260 -2.991630 39.081100 -0.000007 -0.000012 -0.077337 0.182003 23.021600 40.985400 -0.000006 -0.000013 0.232906 2.246740 -65.889800 11.754300 -0.000000 0.000003 -0.000048 -0.000548 -16.598800 -2.192510 6.469440 -0.000001 -179.928000 13.256400 179.977000 -39.081100 -0.002282 -0.040193 0.026945 -0.068598 19.001200 -40.985400 0.000008 0.000006 5.028610 7.484720 -65.243800 -11.754300 -0.000006 -0.000006 -0.006407 -0.074485 -19.604800
